<!-- icon666.com - MILLIONS vector ICONS FREE --><svg viewBox="0 0 512 512" xmlns="http://www.w3.org/2000/svg"><path d="m488 312c-13.230469 0-24 10.769531-24 24v32h16v-32c0-4.40625 3.59375-8 8-8s8 3.59375 8 8v32h16v-32c0-13.230469-10.769531-24-24-24zm0 0"></path><path d="m432 416h-8v-64c0-8.824219-7.175781-16-16-16h-40.335938l34.953126-12.070312c3.214843-1.113282 5.382812-4.152344 5.382812-7.570313v-7.214844l72-32.730469v27.585938h16v-40h-.03125c0-.089844.03125-.167969.03125-.246094-.105469-3.226562-2.136719-6.082031-5.152344-7.226562l-168-64c-1.832031-.695313-3.855468-.695313-5.695312 0l-168 64c-3.015625 1.152344-5.046875 4-5.152344 7.226562-.105469 3.222656 1.742188 6.191406 4.6875 7.527344l83.3125 37.871094v7.214844c0 3.410156 2.167969 6.449218 5.382812 7.5625l34.953126 12.070312h-216.335938c-8.824219 0-16 7.175781-16 16v64h-8c-8.824219 0-16 7.175781-16 16v64c0 8.824219 7.175781 16 16 16h400c8.824219 0 16-7.175781 16-16v-64c0-8.824219-7.175781-16-16-16zm-259.230469-151.34375 147.230469-56.097656 147.230469 56.089844-59.230469 26.925781v-27.574219c0-.878906-.144531-1.742188-.414062-2.542969-.128907-.367187-.363282-.679687-.539063-1.023437-.207031-.410156-.359375-.839844-.632813-1.210938-.207031-.277344-.503906-.480468-.75-.734375-.34375-.351562-.648437-.746093-1.054687-1.023437-.195313-.136719-.433594-.191406-.640625-.3125-.535156-.3125-1.066406-.632813-1.671875-.816406l-29.425781-8.832032c-13.175782-3.953125-26.640625-6.375-40.167969-7.320312-.382813-.023438-.765625-.015625-1.152344-.039063-3.847656-.242187-7.703125-.425781-11.558593-.425781-.128907 0-.25.015625-.375.015625-3.050782 0-6.089844.175781-9.128907.335937-1.320312.074219-2.632812.058594-3.953125.152344-13.496094.976563-26.925781 3.433594-40.0625 7.410156l-27.550781 8.335938-1.226563.367188c-.847656.257812-1.632812.640624-2.328124 1.136718-.253907.183594-.4375.449219-.671876.65625-.390624.351563-.808593.679688-1.121093 1.09375-.398438.546875-.679688 1.160156-.933594 1.792969-.066406.152344-.175781.28125-.226563.441406-.269531.808594-.414062 1.664063-.414062 2.542969v27.574219zm75.230469 39.34375v-34.046875l23.726562-7.121094c11.800782-3.542969 23.847657-5.753906 35.960938-6.648437 1.449219-.105469 2.898438-.105469 4.34375-.167969l-.03125 55.984375h16l.03125-55.96875c13.34375.664062 26.640625 2.832031 39.632812 6.695312l24.335938 7.242188v40.695312l-72 24.871094-72-24.871094zm152 112h-8v-64h16v64zm-240-64v64h-16v-64zm-72 64v-64h40v64zm-32-64h16v64h-16zm-24 80h24v64h-24zm40 0h16v64h-16zm32 0h104v-16h-32v-64h200v64h-152v16h136v64h-256zm272 64v-64h16v64zm56 0h-24v-64h24zm0 0"></path><path d="m208 376h136v16h-136zm0 0"></path><path d="m128 456h128v16h-128zm0 0"></path><path d="m272 456h64v16h-64zm0 0"></path><path d="m16 160h80v160h16v-216h96v104h16v-48h80v16h16v-104c0-8.824219-7.175781-16-16-16h-80v-40c0-8.824219-7.175781-16-16-16h-96c-8.824219 0-16 7.175781-16 16v40h-80c-8.824219 0-16 7.175781-16 16v328h16zm0-16v-16h80v16zm96-56v-16h96v16zm112 56v-16h80v16zm80-40v8h-80v-40h80zm-96-88v40h-96v-40zm-112 56v40h-80v-40zm0 0"></path><path d="m480 176h16v16h-16zm0 0"></path><path d="m480 208h16v16h-16zm0 0"></path><path d="m464 192h16v16h-16zm0 0"></path><path d="m496 192h16v16h-16zm0 0"></path><path d="m400 96h16v16h-16zm0 0"></path><path d="m400 128h16v16h-16zm0 0"></path><path d="m384 112h16v16h-16zm0 0"></path><path d="m416 112h16v16h-16zm0 0"></path></svg>